<svg width="27" height="27" viewBox="0 0 27 27" fill="none" xmlns="http://www.w3.org/2000/svg">
<path d="M22 21H7.725L4.2375 1.825C4.1967 1.59537 4.07691 1.38722 3.89887 1.23657C3.72082 1.08592 3.49572 1.00223 3.2625 1H1" stroke="#A40D30" stroke-width="2" stroke-linecap="round" stroke-linejoin="round"/>
<path d="M9 26C10.3807 26 11.5 24.8807 11.5 23.5C11.5 22.1193 10.3807 21 9 21C7.61929 21 6.5 22.1193 6.5 23.5C6.5 24.8807 7.61929 26 9 26Z" stroke="#A40D30" stroke-width="2" stroke-linecap="round" stroke-linejoin="round"/>
<path d="M22 26C23.3807 26 24.5 24.8807 24.5 23.5C24.5 22.1193 23.3807 21 22 21C20.6193 21 19.5 22.1193 19.5 23.5C19.5 24.8807 20.6193 26 22 26Z" stroke="#A40D30" stroke-width="2" stroke-linecap="round" stroke-linejoin="round"/>
<path d="M6.8125 16H22.5125C22.98 16.0014 23.433 15.838 23.7919 15.5386C24.1508 15.2391 24.3927 14.8227 24.475 14.3625L26 6H5" stroke="#A40D30" stroke-width="2" stroke-linecap="round" stroke-linejoin="round"/>
</svg>
