<svg width="35" height="35" viewBox="0 0 35 35" fill="none" xmlns="http://www.w3.org/2000/svg">
<g clip-path="url(#clip0_11_166)">
<path d="M17.4999 25.6545C17.1258 25.6545 16.8127 25.96 16.8127 26.3417C16.8127 26.7311 17.1182 27.0365 17.4999 27.0365C17.8817 27.0365 18.1871 26.7311 18.1871 26.3493C18.1871 25.96 17.8817 25.6545 17.4999 25.6545Z" fill="white"/>
<path d="M28.2962 0H6.69612C3.00829 0 0 3.00829 0 6.69612V28.2962C0 31.9917 3.00829 34.9924 6.69612 34.9924H17.5C17.8741 34.9924 18.1872 34.687 18.1872 34.3052V29.0063C18.1872 28.6322 17.8818 28.3192 17.5 28.3192C17.1182 28.3192 16.8128 28.6246 16.8128 29.0063V33.618H6.69612C3.75654 33.618 1.36671 31.2282 1.36671 28.2886V6.69612C1.36671 3.75654 3.75654 1.36671 6.69612 1.36671H28.2962C31.2358 1.36671 33.6257 3.75654 33.6257 6.69612V28.2962C33.6257 31.2358 31.2358 33.6257 28.2962 33.6257H23.9212V21.562H27.8839C28.2352 21.562 28.5253 21.2947 28.5635 20.9435L29.0521 16.0569C29.075 15.8661 29.0063 15.6752 28.8765 15.5301C28.7467 15.385 28.5635 15.3087 28.3726 15.3087H23.9212V12.7432C23.9212 12.2775 24.0663 12.1095 24.4634 12.1095H28.3421C28.7162 12.1095 29.0292 11.8041 29.0292 11.4223V6.65794C29.0292 6.28381 28.7238 5.97077 28.3421 5.97077H23.2493C20.3632 5.97077 18.8362 7.23822 18.0574 8.29952C16.9732 9.78839 16.8128 11.5445 16.8128 12.4607V15.3316H13.461C13.0868 15.3316 12.7738 15.637 12.7738 16.0188V20.8748C12.7738 21.2489 13.0792 21.562 13.461 21.562H16.8128V23.5089C16.8128 23.8831 17.1182 24.1961 17.5 24.1961C17.8818 24.1961 18.1872 23.8907 18.1872 23.5089V20.8748C18.1872 20.5007 17.8818 20.1876 17.5 20.1876H14.1481V16.6983H17.5C17.8741 16.6983 18.1872 16.3929 18.1872 16.0111V12.4531C18.1872 10.9108 18.6835 7.32984 23.257 7.32984H27.6702V10.7275H24.4786C23.5929 10.7275 22.5622 11.2544 22.5622 12.728V15.9729C22.5622 16.3471 22.8676 16.6601 23.2493 16.6601H27.632L27.2808 20.18H23.2493C22.8752 20.18 22.5622 20.4854 22.5622 20.8671V34.2976C22.5622 34.6717 22.8676 34.9847 23.2493 34.9847H28.3039C31.9993 34.9847 35 31.9764 35 28.2886V6.69612C35 3.00065 31.9917 0 28.3039 0H28.2962Z" fill="white"/>
<path d="M3.96281 7.00928C3.58868 7.00928 3.27563 7.31469 3.27563 7.69645V13.4076C3.27563 13.7817 3.58104 14.0948 3.96281 14.0948C4.34457 14.0948 4.64998 13.7894 4.64998 13.4076V7.69645C4.64998 7.32232 4.34457 7.00928 3.96281 7.00928Z" fill="white"/>
<path d="M3.96281 15.6829C3.58868 15.6829 3.27563 15.9883 3.27563 16.37C3.27563 16.7594 3.58104 17.0648 3.96281 17.0648C4.34457 17.0648 4.64998 16.7594 4.64998 16.3777C4.64998 15.9959 4.34457 15.6829 3.96281 15.6829Z" fill="white"/>
</g>
<defs>
<clipPath id="clip0_11_166">
<rect width="35" height="35" fill="white"/>
</clipPath>
</defs>
</svg>
