<svg width="35" height="35" viewBox="0 0 35 35" fill="none" xmlns="http://www.w3.org/2000/svg">
<g clip-path="url(#clip0_11_156)">
<path d="M33.5195 30.4017C33.5195 32.125 32.1173 33.5272 30.394 33.5272H4.59831C2.87494 33.5272 1.47275 32.125 1.47275 30.4017V4.59818C1.47275 2.87482 2.87494 1.47262 4.59831 1.47262H30.4018C32.1252 1.47262 33.5274 2.87482 33.5274 4.59818V30.4017H33.5195ZM30.4018 0.117432H4.59831C2.13076 0.117432 0.117554 2.13064 0.117554 4.59818V30.4017C0.117554 32.8692 2.13076 34.8824 4.59831 34.8824H30.4018C32.8693 34.8824 34.8825 32.8692 34.8825 30.4017V4.59818C34.8825 2.13064 32.8693 0.117432 30.4018 0.117432Z" fill="white"/>
<path d="M33.5195 30.4017C33.5195 32.125 32.1173 33.5272 30.394 33.5272H4.59831C2.87494 33.5272 1.47275 32.125 1.47275 30.4017V4.59818C1.47275 2.87482 2.87494 1.47262 4.59831 1.47262H30.4018C32.1252 1.47262 33.5274 2.87482 33.5274 4.59818V30.4017H33.5195ZM30.4018 0.117432H4.59831C2.13076 0.117432 0.117554 2.13064 0.117554 4.59818V30.4017C0.117554 32.8692 2.13076 34.8824 4.59831 34.8824H30.4018C32.8693 34.8824 34.8825 32.8692 34.8825 30.4017V4.59818C34.8825 2.13064 32.8693 0.117432 30.4018 0.117432V0.117432Z" stroke="white" stroke-width="0.3"/>
<path d="M28.1771 28.1769H24.9105V19.842C24.9105 18.9804 24.558 18.1579 23.947 17.5782C23.3595 17.022 22.5996 16.74 21.8006 16.7792H21.6283C19.8423 16.8888 18.4401 18.4242 18.4401 20.2807V28.169H14.8915V14.4213H18.4792V16.1995C18.4792 16.4893 18.6672 16.7557 18.9492 16.8418C19.2312 16.9358 19.5367 16.8418 19.7091 16.599C20.3906 15.6746 21.0721 15.0166 21.738 14.6328C22.3881 14.2646 23.2028 14.0766 24.1663 14.0766C25.4432 14.0766 26.3989 14.4683 27.1039 15.2751C27.8167 16.0976 28.1849 17.4293 28.1849 19.2467V28.169L28.1771 28.1769ZM28.1222 14.3899C27.1587 13.2854 25.827 12.7292 24.1585 12.7292C22.96 12.7292 21.9103 12.9799 21.0564 13.4656C20.6413 13.7006 20.2339 14.0139 19.8266 14.3978V13.7476C19.8266 13.3716 19.5211 13.0661 19.1451 13.0661H14.2021C13.8261 13.0661 13.5206 13.3716 13.5206 13.7476V28.8584C13.5206 29.2344 13.8261 29.5399 14.2021 29.5399H19.1059C19.4819 29.5399 19.7874 29.2344 19.7874 28.8584V20.2886C19.7874 19.1449 20.6256 18.2049 21.691 18.15H21.8633C22.2785 18.1187 22.6858 18.2675 22.9991 18.5652C23.3438 18.8864 23.5397 19.3564 23.5397 19.842V28.8506C23.5397 29.2266 23.8452 29.5321 24.2212 29.5321H28.8429C29.2189 29.5321 29.5244 29.2266 29.5244 28.8506V19.2467C29.5244 17.0925 29.0466 15.4631 28.1144 14.3821L28.1222 14.3899Z" fill="white"/>
<path d="M11.3821 13.0662H6.4392C6.0632 13.0662 5.75769 13.3717 5.75769 13.7477V19.4034C5.75769 19.7795 6.0632 20.085 6.4392 20.085C6.81521 20.085 7.12072 19.7795 7.12072 19.4034V14.4292H10.7085V28.1769H7.12072V25.1767C7.12072 24.8007 6.81521 24.4952 6.4392 24.4952C6.0632 24.4952 5.75769 24.8007 5.75769 25.1767V28.8585C5.75769 29.2345 6.0632 29.54 6.4392 29.54H11.3821C11.7581 29.54 12.0636 29.2345 12.0636 28.8585V13.7477C12.0636 13.3717 11.7581 13.0662 11.3821 13.0662Z" fill="white"/>
<path d="M6.91702 21.9729C6.79169 21.8476 6.61935 21.7771 6.43918 21.7771C6.25901 21.7771 6.08668 21.8476 5.96134 21.9729C5.836 22.0983 5.7655 22.2706 5.7655 22.4508C5.7655 22.6309 5.836 22.8033 5.96134 22.9286C6.08668 23.054 6.25901 23.1245 6.43918 23.1245C6.61935 23.1245 6.79169 23.054 6.91702 22.9286C7.04236 22.8033 7.11286 22.6231 7.11286 22.4508C7.11286 22.2784 7.04236 22.0983 6.91702 21.9729Z" fill="white"/>
<path d="M8.90669 10.9982C7.75517 10.9982 6.82299 10.066 6.82299 8.91451C6.82299 7.76298 7.75517 6.8308 8.90669 6.8308C10.0582 6.8308 10.9904 7.76298 10.9904 8.91451C10.9904 10.066 10.0582 10.9982 8.90669 10.9982ZM8.90669 5.46777C7.01099 5.46777 5.45996 7.01097 5.45996 8.91451C5.45996 10.818 7.00316 12.3612 8.90669 12.3612C10.8102 12.3612 12.3534 10.818 12.3534 8.91451C12.3534 7.01097 10.8102 5.46777 8.90669 5.46777Z" fill="white"/>
<path d="M26.5008 3.37622H20.9703C20.5943 3.37622 20.2888 3.68173 20.2888 4.05773C20.2888 4.43374 20.5943 4.73925 20.9703 4.73925H26.5008C26.8768 4.73925 27.1823 4.43374 27.1823 4.05773C27.1823 3.68173 26.8768 3.37622 26.5008 3.37622Z" fill="white"/>
<path d="M17.8917 3.37622H17.8839C17.5079 3.37622 17.2024 3.68173 17.2024 4.05773C17.2024 4.43374 17.5079 4.73925 17.8839 4.73925H17.8917C18.2677 4.73925 18.5733 4.43374 18.5733 4.05773C18.5733 3.68173 18.2677 3.37622 17.8917 3.37622Z" fill="white"/>
</g>
<defs>
<clipPath id="clip0_11_156">
<rect width="35" height="35" fill="white"/>
</clipPath>
</defs>
</svg>
