<svg width="91" height="15" viewBox="0 0 91 15" fill="none" xmlns="http://www.w3.org/2000/svg">
<path d="M7.5 0L9.36475 4.93339L14.6329 5.18237L10.5172 8.48036L11.9084 13.5676L7.5 10.6725L3.09161 13.5676L4.48277 8.48036L0.367076 5.18237L5.63525 4.93339L7.5 0Z" fill="#DA3D4E"/>
<path d="M26.5 0L28.3647 4.93339L33.6329 5.18237L29.5172 8.48036L30.9084 13.5676L26.5 10.6725L22.0916 13.5676L23.4828 8.48036L19.3671 5.18237L24.6353 4.93339L26.5 0Z" fill="#DA3D4E"/>
<path d="M45.5 0L47.3647 4.93339L52.6329 5.18237L48.5172 8.48036L49.9084 13.5676L45.5 10.6725L41.0916 13.5676L42.4828 8.48036L38.3671 5.18237L43.6353 4.93339L45.5 0Z" fill="#DA3D4E"/>
<path d="M64.5 0L66.3647 4.93339L71.6329 5.18237L67.5172 8.48036L68.9084 13.5676L64.5 10.6725L60.0916 13.5676L61.4828 8.48036L57.3671 5.18237L62.6353 4.93339L64.5 0Z" fill="#DA3D4E"/>
<path d="M83.5 0L85.3647 4.93339L90.6329 5.18237L86.5172 8.48036L87.9084 13.5676L83.5 10.6725L79.0916 13.5676L80.4828 8.48036L76.3671 5.18237L81.6353 4.93339L83.5 0Z" fill="#DA3D4E"/>
</svg>
