<svg width="36" height="35" viewBox="0 0 36 35" fill="none" xmlns="http://www.w3.org/2000/svg">
<g clip-path="url(#clip0_11_142)">
<path d="M12.525 12.9044H12.5475C12.615 12.9501 12.69 12.9653 12.7575 12.9653C12.9525 12.9653 13.1325 12.8512 13.2225 12.6609C13.3425 12.4023 13.2225 12.0979 12.975 11.9762H12.9525C12.6975 11.8468 12.3975 11.9609 12.2775 12.2196C12.1575 12.4783 12.2775 12.7827 12.525 12.9044Z" fill="white"/>
<path d="M31.2225 9.4729C31.08 9.2979 30.8325 9.23703 30.6225 9.33594C30.315 9.4729 30 9.59464 29.6775 9.70116C30.09 9.16855 30.4125 8.55986 30.6225 7.8979C30.69 7.69247 30.6225 7.47181 30.4575 7.33486C30.2925 7.1979 30.06 7.18268 29.88 7.29681C28.9875 7.82942 28.035 8.21747 27.03 8.44573C25.9875 7.42616 24.57 6.8479 23.115 6.8479C20.0025 6.8479 17.4675 9.41964 17.4675 12.5772C17.4675 12.7827 17.475 12.9957 17.4975 13.2012C16.695 13.1251 15.9 12.9805 15.135 12.7675C14.865 12.6914 14.58 12.8588 14.5125 13.1327C14.445 13.4066 14.6025 13.6957 14.8725 13.7642C15.915 14.0533 16.995 14.2283 18.09 14.2816C18.2475 14.2892 18.405 14.2207 18.5025 14.099C18.6075 13.9772 18.645 13.8099 18.6075 13.6501C18.525 13.2925 18.4875 12.9272 18.4875 12.5772C18.4875 9.98268 20.565 7.87507 23.1225 7.87507C24.3975 7.87507 25.6275 8.41529 26.4975 9.35877C26.6175 9.48812 26.7975 9.54899 26.97 9.51094C27.6675 9.37399 28.35 9.16855 29.01 8.89464C28.6425 9.41203 28.17 9.85334 27.6225 10.1881C27.4125 10.3099 27.3225 10.5686 27.405 10.7968C27.48 11.0251 27.705 11.1696 27.945 11.1468C28.4175 11.0936 28.8825 11.0022 29.34 10.8805C28.92 11.3218 28.4625 11.7251 27.9675 12.0903C27.8325 12.1892 27.75 12.349 27.7575 12.524L27.7725 13.1936C27.7725 20.2316 22.485 27.5055 13.65 27.5055C11.6325 27.5055 9.65254 27.0718 7.83004 26.2349C9.97504 26.0675 11.985 25.2838 13.6875 23.9294C13.86 23.7925 13.9275 23.5642 13.86 23.3588C13.7925 23.1533 13.605 23.0088 13.3875 23.0088C11.685 22.9707 10.155 21.9968 9.37504 20.5055C9.42754 20.5055 9.48754 20.5055 9.54004 20.5055C10.0425 20.5055 10.545 20.437 11.025 20.3153C11.2575 20.2544 11.4075 20.0414 11.4075 19.7979C11.4075 19.5544 11.235 19.3566 11.0025 19.3033C9.10504 18.9153 7.65754 17.3555 7.35004 15.4533C7.91254 15.6588 8.49754 15.7729 9.09004 15.7881C9.31504 15.7881 9.51754 15.6436 9.59254 15.4305C9.66004 15.2099 9.57754 14.974 9.39004 14.8446C8.10004 13.9696 7.32754 12.5164 7.32754 10.9338C7.32754 10.3479 7.43254 9.77725 7.63504 9.24464C8.46754 10.1729 9.40504 11.0022 10.4325 11.7022C10.665 11.862 10.98 11.8012 11.1375 11.5577C11.295 11.3218 11.235 11.0022 10.995 10.8425C9.83254 10.0512 8.79004 9.09247 7.90504 7.9892C7.80004 7.85986 7.63504 7.79138 7.47004 7.79899C7.30504 7.8142 7.15504 7.90551 7.07254 8.05007C6.57004 8.91747 6.30754 9.9142 6.30754 10.9338C6.30754 12.1968 6.71254 13.3914 7.43254 14.3729C7.29754 14.312 7.16254 14.2436 7.02754 14.1675C6.87004 14.0762 6.67504 14.0838 6.52504 14.1675C6.36754 14.2588 6.27754 14.4262 6.27754 14.6088V14.6696C6.27754 16.5794 7.21504 18.3218 8.69254 19.3718C8.69254 19.3718 8.69254 19.3718 8.68504 19.3718C8.50504 19.3414 8.32504 19.4022 8.20504 19.5392C8.08504 19.6762 8.04754 19.8664 8.10004 20.0414C8.70004 21.9207 10.2 23.3283 12.0225 23.8305C10.5075 24.7436 8.79754 25.2229 6.99754 25.2229C6.60754 25.2229 6.22504 25.2001 5.82754 25.1544C5.59504 25.1316 5.37004 25.2686 5.28754 25.4968C5.20504 25.7251 5.28754 25.9762 5.49004 26.1055C7.92754 27.6881 10.755 28.5327 13.65 28.5327C15.9825 28.5327 18.165 28.0609 20.1375 27.1327C21.945 26.2805 23.55 25.0631 24.8925 23.5186C27.3675 20.6729 28.785 16.899 28.785 13.1707C28.785 13.1707 28.785 13.1631 28.785 13.1555V12.7522C29.745 12.0066 30.5775 11.1088 31.2525 10.0816C31.38 9.89138 31.365 9.64029 31.215 9.46529L31.2225 9.4729Z" fill="white"/>
<path d="M24.4425 19.4021C24.2025 19.2576 23.8875 19.3337 23.745 19.5771C23.6025 19.8206 23.6775 20.1402 23.9175 20.2847C24 20.338 24.09 20.3608 24.18 20.3608C24.3525 20.3608 24.525 20.2695 24.615 20.1097C24.7575 19.8663 24.6825 19.5467 24.4425 19.4021Z" fill="white"/>
<path d="M23.4526 20.9545C23.2351 20.7718 22.9126 20.8023 22.7326 21.0229C21.8401 22.1186 20.7826 23.024 19.5976 23.7164C19.3501 23.861 19.2676 24.1729 19.4101 24.424C19.5076 24.5914 19.6726 24.6827 19.8526 24.6827C19.9351 24.6827 20.0251 24.6599 20.1076 24.6142C21.4051 23.861 22.5526 22.8795 23.5201 21.6849C23.7001 21.4642 23.6701 21.1371 23.4526 20.9545Z" fill="white"/>
<path d="M0.75 28.9132V6.08707C0.75 5.73707 0.78 5.38707 0.8475 5.04468C0.915 4.70229 1.0125 4.36751 1.1475 4.04794C1.2825 3.72838 1.44 3.41642 1.635 3.12729C1.83 2.83816 2.0475 2.56425 2.2875 2.32077C2.535 2.07729 2.7975 1.85664 3.0825 1.65881C3.3675 1.46099 3.675 1.3012 3.99 1.16425C4.305 1.02729 4.635 0.928378 4.9725 0.859899C5.31 0.791421 5.655 0.760986 6 0.760986H30C30.345 0.760986 30.6825 0.791421 31.0275 0.859899C31.3725 0.928378 31.695 1.02729 32.01 1.16425C32.325 1.3012 32.6325 1.46099 32.9175 1.65881C33.2025 1.85664 33.4725 2.07729 33.7125 2.32077C33.9525 2.57186 34.1775 2.83816 34.365 3.12729C34.5525 3.41642 34.7175 3.72838 34.8525 4.04794C34.9875 4.36751 35.085 4.70229 35.1525 5.04468C35.22 5.38707 35.25 5.73707 35.25 6.08707V28.9132C35.25 29.2632 35.22 29.6056 35.1525 29.9556C35.085 30.2979 34.9875 30.6327 34.8525 30.9523C34.7175 31.2719 34.56 31.5838 34.365 31.8729C34.17 32.1621 33.9525 32.436 33.7125 32.6795C33.465 32.9229 33.2025 33.1436 32.9175 33.3414C32.6325 33.5392 32.325 33.699 32.01 33.836C31.695 33.9729 31.365 34.0719 31.0275 34.1403C30.69 34.2088 30.345 34.2392 30 34.2392H6C5.655 34.2392 5.3175 34.2088 4.9725 34.1403C4.6275 34.0719 4.305 33.9729 3.99 33.836C3.675 33.699 3.3675 33.5392 3.0825 33.3414C2.7975 33.1436 2.5275 32.9229 2.2875 32.6795C2.0475 32.4284 1.8225 32.1621 1.635 31.8729C1.4475 31.5838 1.2825 31.2719 1.1475 30.9523C1.0125 30.6327 0.915 30.2979 0.8475 29.9556C0.78 29.6132 0.75 29.2632 0.75 28.9132V28.9132Z" stroke="white" stroke-width="1.5"/>
</g>
<defs>
<clipPath id="clip0_11_142">
<rect width="36" height="35" fill="white"/>
</clipPath>
</defs>
</svg>
